<?xml version="1.0" encoding="utf-8"?>
<!-- Generator: Adobe Illustrator 26.2.1, SVG Export Plug-In . SVG Version: 6.00 Build 0)  -->
<svg version="1.1" id="a" xmlns="http://www.w3.org/2000/svg" xmlns:xlink="http://www.w3.org/1999/xlink" x="0px" y="0px"
	 viewBox="0 0 900 300" style="enable-background:new 0 0 900 300;" xml:space="preserve">
<style type="text/css">
	.st0{fill:#BDBEC0;}
	.st1{fill:#BC2F2C;}
	.st2{fill:#636569;}
</style>
<g>
	<g>
		<g>
			<g>
				<path class="st0" d="M137.1,94.3V124c0,20.8,20.8,20.8,20.8,20.8h60.7V73.5h-60.7C137.1,73.5,137.1,94.3,137.1,94.3"/>
				<path class="st0" d="M137.1,212.1V292h54.5c0,0,27,0,27-27v-73.7h-60.7C137.1,191.3,137.1,212.1,137.1,212.1"/>
				<path class="st1" d="M191.6,8H30.8c0,0-27,0-27,27.1V265c0,0,0,27,27,27h104h2.2v-79.9c0,0,0-20.8,20.8-20.8h60.7v-2.2V147v-2.2
					h-60.7c0,0-20.8,0-20.8-20.8V94.3c0,0,0-20.8,20.8-20.8h60.7v-2.2V35.1C218.6,35.1,218.6,8,191.6,8"/>
			</g>
		</g>
		<g>
			<polygon class="st2" points="301.8,191.2 294.2,191.2 294.2,126.3 347.6,126.3 347.6,133.9 301.8,133.9 301.8,153.7 330.4,153.7 
				330.4,161.3 301.8,161.3 			"/>
			<rect x="365.1" y="126.3" class="st2" width="7.6" height="65"/>
			<polygon class="st2" points="446.4,191.2 391.1,191.2 391.1,126.3 444.5,126.3 444.5,133.9 398.7,133.9 398.7,153.7 422.8,153.7 
				422.8,161.3 398.7,161.3 398.7,183.6 446.4,183.6 			"/>
			<path class="st2" d="M497.2,153.1c12.1,0,24.4,4.4,24.4,18.8c0,14.1-15.1,20.7-31,20.7c-19.7,0-28.7-9.9-32.5-13.9l5.5-5.4
				c4,3.5,10.5,11.7,27.3,11.7c14.6,0,23.1-5.5,23.1-13.1c0-8.2-8.2-11.2-14.7-11.2h-13.7c-12.6,0-22.7-4.2-22.7-16.3
				c0-9,8.1-19.6,28.1-19.6c14.9,0,23.9,7.1,27.2,9.5l-4.8,6c-4.7-3.1-10.9-7.9-22.6-7.9c-14.6,0-20.3,6.8-20.3,11.9
				c0,8.7,11,8.7,18.8,8.7H497.2z"/>
			<polygon class="st2" points="563.3,191.2 555.7,191.2 555.7,133.9 531.9,133.9 531.9,126.3 587,126.3 587,133.9 563.3,133.9 			
				"/>
			<path class="st2" d="M621.8,135.5l-12.2,25.8h24L621.8,135.5z M656,191.2h-8.5L636.9,169h-31.2l-10.2,22.3H587l30.9-65h7.6
				L656,191.2z"/>
			<rect x="707.9" y="126.3" class="st2" width="7.6" height="65"/>
			<polygon class="st2" points="792.3,191.2 784.7,191.2 742.6,138.3 742.4,138.3 742.4,191.2 734.8,191.2 734.8,126.3 742.4,126.3 
				784.5,179.9 784.7,179.9 784.7,126.3 792.3,126.3 			"/>
			<polygon class="st2" points="868.8,191.2 861.2,191.2 819.1,138.3 818.9,138.3 818.9,191.2 811.3,191.2 811.3,126.3 818.9,126.3 
				861,179.9 861.2,179.9 861.2,126.3 868.8,126.3 			"/>
			<path class="st2" d="M883.7,181.1v-3.6h2.5c1.3,0,2.6,0.2,2.6,1.7c0,1.8-1.4,1.9-2.9,1.9H883.7z M883.7,182.6h2.1l3.1,5.1h2
				l-3.3-5.2c1.7-0.2,3.1-1.2,3.1-3.3c0-2.3-1.4-3.4-4.2-3.4h-4.5v11.9h1.8V182.6z M885.9,192.1c5.6,0,10.4-4.3,10.4-10.3
				c0-5.9-4.7-10.2-10.4-10.2c-5.6,0-10.4,4.3-10.4,10.2C875.4,187.8,880.2,192.1,885.9,192.1 M877.5,181.8c0-4.8,3.7-8.5,8.4-8.5
				c4.7,0,8.3,3.7,8.3,8.5c0,5-3.7,8.6-8.3,8.6C881.2,190.4,877.5,186.8,877.5,181.8"/>
		</g>
	</g>
	<g>
		<path class="st2" d="M318.8,249.7v-14.9h-20.7v14.9h-3.8v-32.2h3.8V231h20.7v-13.5h3.8v32.2H318.8z"/>
		<path class="st2" d="M354.1,250.6c-9.4,0-17.3-7.2-17.3-16.8c0-9.7,8.1-17,17.5-17c9.5,0,17.2,7.1,17.2,16.8
			C371.6,243.4,363.7,250.6,354.1,250.6z M354.4,220.6c-7.5,0-13.7,5.5-13.7,13.1c0,7.5,6.2,13,13.5,13c7.5,0,13.6-5.5,13.6-13.1
			C367.7,226.2,361.8,220.6,354.4,220.6z"/>
		<path class="st2" d="M397.6,221.3v28.4h-3.8v-28.4H382v-3.8h27.4v3.8H397.6z"/>
		<path class="st2" d="M421.9,249.7v-32.2h26.5v3.8h-22.7v9.8h11.9v3.8h-11.9v11h23.7v3.8H421.9z"/>
		<path class="st2" d="M462,249.7v-32.2h3.8v28.4h20.3v3.8H462z"/>
		<path class="st2" d="M496.7,249.7v-32.2h26.5v3.8h-22.7v9.8h11.9v3.8h-11.9v11h23.7v3.8H496.7z"/>
		<path class="st2" d="M548.5,250.6c-6.9,0-11.5-2-16.3-6.9l2.7-2.7c4.2,4.2,7.6,5.8,13.6,5.8c4,0,11.5-1.2,11.5-6.5
			c0-3.9-4-5.4-7.3-5.5l-6.8-0.1c-4.1,0-6-0.5-8-1.8c-2.1-1.4-3.3-3.9-3.3-6.4c0-7.1,8-9.7,13.9-9.7c5.3,0,9.4,1.6,13.6,4.7l-2.4,3
			c-3.7-2.6-6.8-3.9-11.4-3.9c-3.4,0-9.9,1.4-9.9,5.9c0,1.3,0.7,2.7,1.9,3.3c1.5,0.8,2.5,1,6.6,1l4.8,0c2.2,0,4.5,0.2,6.6,1.1
			c3.3,1.4,5.6,4.8,5.6,8.4C563.7,248.2,554.8,250.6,548.5,250.6z"/>
	</g>
</g>
</svg>
